<svg xmlns="http://www.w3.org/2000/svg" viewBox="0 0 652 652"><path d="M414 403.3l225.4-130.1v-37.9L414 365.4z" fill="#e2001a"/><path d="M414 239.6l225.4-130.1V71.6L414 201.8z" fill="#00579d"/><g fill-rule="evenodd"><path d="M28.9 568.1v-84.3H-37v84.3h-43.6V363.4H-37v85.7h65.8v-85.7h43.6v204.7H28.9zM639.4 495c0-12.2 2.6-23.8 7.9-34.8 2.4-4.6 5.6-8.8 9.6-12.2 2.4-2.2 5.2-3.7 8.2-4.3 4.6-.9 9.4-.8 11.4 4 .6 1.2.9 2.6 1.2 3.9 1.4 7 1.5 19.9 1.5 24.8v91.7H721V459.7c-.2-14.2-2.9-29.7-12.8-40.5-8-8.9-18-12.9-28.7-13.1-17.2-.2-35.3 10.4-40.1 27.1v-93.9l-41.8 24.1v204.7h41.8V495zM93.6 538.8c-4.5-7.5-7.9-16.1-10.1-25.8-2.3-9.7-3.4-20.5-3.4-32.2 0-7.3.5-14.6 1.8-21.9 1.1-6.3 2.9-12.6 5.5-18.5 3.1-7 7.4-13.5 12.9-18.8 6.4-6.1 14.4-10.5 23.9-13.1 6.4-1.8 13.4-2.6 21.2-2.6 5.6 0 11.3.5 16.8 1.9 6.9 1.7 12.9 4.4 18.2 8.2 6.3 4.4 11.3 10.3 15 17.1 4.5 8.2 7.1 17.8 8 28.5.4 5.1.4 10 .4 15.1v7.2h-84.4c.5 6.7 2.1 13.5 4.4 19.8a73.06 73.06 0 0 0 8.5 16.1c3.6 4.9 8 9.2 13.2 12.4 7 4.3 14.9 6.3 23.1 6.3 8.7 0 17.7-2.4 25.8-5.4l5.7-2.1v33.4l-2.9 1c-7.8 2.7-15.8 4.4-24.6 5.4a150.67 150.67 0 0 1-16.5.9c-5.6-.1-11.1-.5-16.5-1.4-5.9-1-11.5-2.7-16.6-5-5.2-2.2-9.9-5-14.2-8.4-5.8-5.1-11.1-11.2-15.2-18.1m70.1-84.6c-.2-1.5-.6-3-1-4.4-1.3-3.7-3.4-7-6.6-9.3-1.5-1-3.2-2-5.4-2.6-5.8-1.7-12.8-1.5-18.2 1.4-4.1 2.2-7.3 5.8-9.3 10-.8 1.7-1.5 3.3-1.9 4.9h42.4zm106.6-12V509c0 3.2.1 6.3.3 9.2.3 4.6 1.1 9.8 3.5 13.8 2 3.2 4.9 5.1 8.5 5.9 4.2 1 8.7.7 12.9-.1s8.3-1.9 12.4-3.1v33.7l-3.5.6c-4.7.8-9.6 1.5-14.4 1.9s-9.6.7-14.4.7-9.7-.4-14.4-1.2c-6.6-1.1-13.1-3.4-18.6-7.3-4.5-3.3-7.9-7.6-10.1-12.8-1.3-3-2.3-6.1-2.9-9.4-1.3-6.8-1.2-13.7-1.2-20.6v-78.1h-27.9v-32.8h27.9v-46l41.7-24.1v70.1H323v-46l41.7-24.1.1 70.1H407v32.8h-42.2V509c0 3.2.1 6.3.3 9.2.4 4.6 1.1 9.8 3.5 13.8 2 3.2 5 5.1 8.5 5.9 4.2 1 8.7.7 12.9-.1s8.3-1.9 12.5-3.1v33.7l-3.5.6c-4.7.8-9.6 1.5-14.4 1.9-4.7.4-9.6.7-14.5.7-4.8 0-9.6-.4-14.3-1.2-6.6-1.1-13.1-3.4-18.6-7.3-4.5-3.3-7.9-7.6-10.2-12.8-1.3-3-2.3-6.1-2.9-9.4-1.3-6.8-1.2-13.7-1.2-20.6v-78.1h-52.6zm147.9 125.9H414V409.4h41.8v158.7h-37.6zm57.7-30.8c-4.4-7.3-7.8-15.7-10-25.5-1.8-7.6-2.8-15.7-3.1-23.9s.2-16.4 1.5-24.2c1.2-7.2 3.1-14 5.9-20.3 3.9-8.7 9.5-16.6 16.8-22.7 7.6-6.3 17.1-10.9 28.4-13.1 10.7-2.1 23-2.2 33.7 0 8.5 1.7 15.5 4.8 21.2 8.9 7.1 5.2 12.3 12.3 15.6 20.4 3.2 7.8 4.6 16.3 4.9 24.8.1 2.6 0 5.1 0 7.6h-43.9v-4.2a73.43 73.43 0 0 0-.3-6.7c-.4-4.4-1.4-9.2-3.9-13.1-2-3.1-5-5.1-8.6-5.9-3.2-.7-6.9-.6-10.1.3s-5.9 2.7-8.2 5.1c-2.8 2.9-4.6 6.5-6 10.3-1 2.9-1.8 6.1-2.3 9.5-1.3 8.2-1 16.8.2 24.9.8 4.5 1.9 8.9 3.3 13.2 3.7 10.6 10.1 20.3 19.4 26.9 5.1 3.6 11.2 6.2 18.3 7.6 6.9 1.4 14.2 1.5 21.1.8a57 57 0 0 0 13.8-3.1l5.7-2.1v30.6l-2.9.9a145.6 145.6 0 0 1-28.4 6.3c-4.9.6-10 .9-15 .9s-10-.3-14.9-1c-8.2-1.2-16.1-3.5-23.2-6.9-12.1-5.7-22.1-14.8-29-26.3"/><path d="M414 348.7l225.4-130.1v-37.9L414 310.8z" fill="#faba00"/><path d="M414 294.1l225.4-130v-37.9L414 256.3z" fill="#00925b"/></g></svg>