<svg xmlns="http://www.w3.org/2000/svg" viewBox="0 0 1200 1200"><g fill-rule="evenodd"><path d="M789.3 472.2L367.5 50.3H219.4v148.5l422.7 423H219.4v190.4h761V50.3H790.5v421.6z" fill="#ee3346"/><path d="M219.4 290.5v267.6h267.4zM458.8 50.3l267.5 267.6.2-267.6z" fill="#607f94"/></g><path d="M250.2 1000.7V926c.1-.1.2-.1.4-.2.5.7 1.1 1.3 1.6 2l21.2 26.9c1.6 2 3.5 3 6.1 3 5.6-.1 11.2 0 16.9 0 .5 0 1 .1 1.6-.2l25.4-31.5c.2 0 .3.1.5.1v74.6h31.5V878.9c-.6-.3-1.1-.2-1.6-.2h-23.6c-2.8 0-4.8 1-6.5 3.2l-34.5 43.3c-.3.4-.5.9-1.1 1-.5-.1-.7-.5-1-.9l-34.4-43c-1.9-2.5-4.2-3.6-7.4-3.5-8.1.2-16.2.1-24.3.1-.6 0-1.3-.1-1.9.2-.4 1.9-.3 120.5.1 121.9 10.2-.3 20.5-.3 31-.3zm62.8 85.5l-4.3-2.4c.3-.8.8-1.1 1.3-1.6 6.6-7.2 10.1-15.7 9.5-25.6-.8-12.3-7.8-21.8-19.4-25.7-6.1-2.1-12.4-2.9-18.8-2.9l-61.1-.1c-.4 0-.9-.1-1.3.3v121.6c.9.4 1.6.2 2.4.2H273c5.6 0 11.2-.1 16.8-.7 5.7-.6 11.2-1.7 16.5-3.9 8.9-3.7 15.3-9.8 18.7-18.9 2.1-5.7 2.7-11.6 2.2-17.7-1-9.7-5.7-17.3-14.2-22.6zm-61.2-31c.3-.4.6-.4 1-.4h24.7c1 0 2 .1 3 .3 4.2.9 6.3 3.1 6.8 7.4.4 3.5.1 6.9-1.1 10.2-1 3-2.4 4-5.5 4h-27.2c-.5 0-1 .1-1.7-.2v-21.3zm41.5 61.8c-1.1 3.8-3.8 5.6-7.5 6.1-1.8.2-3.5.4-5.3.4h-28.6v-22.3c.5-.4 1-.3 1.5-.3h28c2 0 4.1.1 6.1.6 3.5.8 5.7 3.1 6.3 6.6.4 2.9.3 5.9-.5 8.9zm602.8-116.3v-72.2c.6 0 .7.3.8.6 3.6 5.1 7.5 10 11.4 14.9l42.9 53.5c2 2.4 4.1 3.5 7.2 3.4h20.7c.6 0 1.3.2 1.9-.2.4-2.2.3-120.5-.1-121.9-3.5-.3-28.7-.2-30.3.2v71.5c-.6 0-.8-.4-1-.7l-3.5-4.8c-8.4-11.1-17.2-22-26-32.9l-23.8-29.8c-2-2.5-4.2-3.8-7.5-3.7-7 .2-14 .1-21.1.1-.7 0-1.4-.2-2 .2-.4 2.1-.3 120.5.1 121.9l30.3-.1zm54.5 34.6v57.6l-.2 7.1c-.8-.8-1.4-1.6-2-2.4-8.2-11.1-16.8-21.8-25.5-32.6l-27.1-33.8c-1.7-2.2-3.7-3.2-6.6-3.1l-22 .1c-.5 0-1.2-.2-1.7.3v121.8H896v-72.9c.4.6.6.7.7.8 3.7 5.3 7.7 10.3 11.7 15.4l43.3 53.9c1.4 1.8 3 2.7 5.2 2.7h22c.6 0 1.3.1 2-.2v-121.8h-30.5c.2 2.4.2 4.8.2 7.1zm-393.9-34.5c6.7 0 13.4-.2 20.1-1 7.2-.9 14.2-2.4 21-5 16.7-6.5 27.8-18.3 32.3-35.7 3.3-12.4 3.2-25 .3-37.5-2.2-9.2-6.3-17.4-12.9-24.2-6-6.2-13.3-10.5-21.4-13.4-9.9-3.5-20.2-5.1-30.6-5.2l-49-.1c-.4 0-.9-.1-1.4.3v121.9h2.3l39.3-.1zm-8.9-93.6c.5-.4 1-.3 1.4-.3 5.9 0 11.9-.1 17.8.2 4.1.2 8.1.7 12.1 1.8 9.5 2.6 15.3 8.8 17.7 18.3 1.3 5.3 1.7 10.7 1.3 16.1-.2 3.3-.6 6.6-1.6 9.8-2.7 9.3-8.8 15-18.1 17.5-4.9 1.3-9.9 1.7-15 1.8-4.7.1-9.4 0-14.2 0-.5 0-1 .1-1.6-.3l.2-64.9zm-108.5 198.5l1.1-.8c5.8-4.1 10.4-9.4 13.7-15.7 5.3-10.3 6.2-21.1 3.8-32.2-2.9-13-10.7-21.6-23.5-25.6-7.4-2.3-15.1-3.2-22.8-3.3l-57.3-.1c-.4 0-.9-.1-1.3.3v121.8h32.7v-38.4h18.5c2.1 0 3.7.7 4.7 2.6.6 1.1 1.2 2.1 1.9 3.1l17.3 29.6c1.3 2.3 3.2 3.3 5.8 3.3h31c.4 0 .9.2 1.2-.4l-27.1-43.6c.2-.4.2-.5.3-.6zm-13.9-30.2c-.3 1.8-.7 3.5-1.4 5.2-1.4 3.2-3.6 5-7.4 5-9.7-.1-19.4 0-29.1 0-.6 0-1.1.2-1.8-.3V1056c.4-.4.8-.4 1.1-.4l24.5.1c2.4.1 4.8.4 7.1 1.1 2.9 1 4.9 2.9 6 5.7 1.8 4.3 1.7 8.6 1 13zm323.8-101.9h-63.4c-.4-2.7-.3-19.8.2-21.4h55.9c.4-2.8.3-25-.2-26.5h-55.9c-.4-2.8-.2-18.5.2-19.9h61.7v-27.1H653v122h96.3l-.1-27.1zm-10.7 68.2l-4.7-11.5c-.6-1.6-1.6-2.4-3.3-2.2h-31.4c-.5 0-1-.1-1.7.3l-45.5 121.5c.5.5.9.4 1.3.4h28.5c.6 0 1.1-.1 1.7-.2 1-.1 1.6-.7 2-1.6l.6-1.6 5.1-15.1c.2-.6.3-1.3.8-1.8h48.6c.3.6.5 1.1.7 1.6l5.7 15c1.1 3 1.8 3.5 4.9 3.5h29.1c.5 0 1 .2 1.5-.3l-3.6-8.8-40.3-99.2zm-37.6 62.4c4.5-15 10.4-29.4 14.2-44.9 4.1 15.6 10.5 30 15.5 44.9h-29.7zm-200.6-103.6c-.2-1.3-.9-2.5-1.4-3.7l-47-115.4c-1.1-2.6-1.4-2.9-4.2-2.9h-30.6c-.6 0-1.1-.1-1.8.3l-45.5 121.7c.7.4 1.2.2 1.7.2h29c1.6 0 2.8-.7 3.3-2.4.2-.5.3-1 .5-1.4l4.9-14.7c.2-.6.3-1.3.8-1.7h48.6l2 5.2 4.6 12.2c.7 2 2.1 3 4.2 2.9h29.1c.5-.1 1.1.1 1.8-.3zm-81.1-45.8c-.3-.6 0-1.1.2-1.6 2.4-8.1 5.4-16 8-24 1.9-5.9 3.9-11.7 5.2-17.8.1-.4.2-.8.5-1.1 3.9 15.2 10.3 29.5 15.2 44.2-1.5.5-26.2.6-29.1.3zm236.1 73.4H541v27h40.7v81.3c0 4.5-.1 9 .1 13.6h32.8v-95h40.7v-26.9zm-166.4 121.9h32.4v-122h-32.5c-.4 2.2-.4 120.6.1 122zm317.6-271.4v122h32.4c.4-2 .3-120.5-.1-122h-32.3zm-4.6 149.4v122h32.4c.4-2.4.3-120.7-.1-122h-32.3z" fill="#607f94"/></svg>