<svg xmlns="http://www.w3.org/2000/svg" width="745.173" height="171.391"><path d="M165.08 0v58.094H738.53V0H165.08zM0 93.844v77.546h112.508v-14.458h-59.54V140.11h59.54v-14.852H52.705v-16.955h59.803V93.844H0z" fill="#d4082c"/><path d="M188.608 93.844c-13.028 0-23.527 10.6-23.527 23.658v53.888h102.124l.13-11.435c0-1.046-.752-1.556-1.577-1.577-.8-.03-66.9 0-66.9 0v-19.19h58.094v-11.303c0-.973-.615-1.577-1.577-1.577H198.86v-19.584h68.346V95.16c0-1.04-.62-1.314-1.446-1.314h-77.152zm116.057 0c-13 0-23.527 10.6-23.527 23.658v53.888h103.045v-43.505c0-.82-.783-1.577-1.577-1.577l-44.95.13c-1 0-1.577.668-1.577 1.446v11.303h34.7v18.007h-55.99v-50.602h69.397V95.158c0-.983-.6-1.314-1.577-1.314h-77.94zm118.554 0c-13 0-23.527 10.594-23.527 23.658v53.888h103.045v-43.505c0-.82-.662-1.577-1.446-1.577l-44.95.13c-.994 0-1.446.662-1.446 1.446l-.13 11.303h34.7v18.007h-55.99v-50.602h69.266V95.158c0-.983-.484-1.314-1.446-1.314H423.22zm118.817 0c-13.023 0-23.527 10.6-23.527 23.658v53.888h102.124v-11.435c0-1.046-.626-1.556-1.446-1.577-.804-.03-66.9 0-66.9 0v-19.19h57.963v-11.303c0-.973-.484-1.577-1.446-1.577h-56.517v-19.584h68.346V95.16c0-1.036-.757-1.314-1.577-1.314h-77.02zm115.794 0c-12.996 0-23.395 10.594-23.395 23.658v53.888h33.647v-32.2l34.7 29.967c1.556 1.25 2.276 2.266 3.812 2.234h36.933c3.633 0 .13-2.76.13-2.76l-34.7-29.44h9.2c11.256 0 20.372-11.445 20.372-22.738 0-11.288-9.01-22.607-20.24-22.607h-60.46zm10.252 12.88h45.476c3.896 0 8.806 3.04 8.806 9.858 0 6.156-5.2 9.858-8.806 9.858H668.08v-19.715z"/></svg>